<svg aria-hidden="true" style="position: absolute; width: 0; height: 0; overflow: hidden;" version="1.1" xmlns="http://www.w3.org/2000/svg" xmlns:xlink="http://www.w3.org/1999/xlink">
<defs>
<symbol id="icon-github" viewBox="0 0 32 32">
<path d="M16 2.666c-7.364 0-13.334 5.97-13.334 13.334v0c0 5.893 3.827 10.893 9.12 12.667 0.667 0.106 0.881-0.307 0.881-0.667v-2.253c-3.694 0.8-4.48-1.787-4.48-1.787-0.614-1.548-1.48-1.961-1.48-1.961-1.213-0.826 0.093-0.8 0.093-0.8 1.332 0.093 2.039 1.373 2.039 1.373 1.161 2.028 3.121 1.427 3.881 1.107 0.119-0.867 0.466-1.453 0.84-1.787-2.961-0.333-6.067-1.48-6.067-6.56 0-1.48 0.507-2.666 1.373-3.613-0.133-0.333-0.6-1.72 0.133-3.52 0 0 1.12-0.36 3.667 1.361 0.989-0.28 2.124-0.44 3.297-0.44 0.013 0 0.025 0 0.038 0h-0.002c1.134 0 2.28 0.147 3.333 0.44 2.547-1.72 3.667-1.361 3.667-1.361 0.733 1.8 0.266 3.187 0.133 3.52 0.867 0.947 1.373 2.134 1.373 3.613 0 5.094-3.121 6.213-6.093 6.547 0.48 0.413 0.919 1.226 0.919 2.467v3.653c0 0.36 0.214 0.787 0.893 0.666 5.294-1.786 9.107-6.771 9.107-12.666 0-0 0-0.001 0-0.001 0-7.363-5.969-13.332-13.332-13.332-0 0-0.001 0-0.001 0h0z"></path>
</symbol>
</defs>
</svg>
